<?xml version="1.0" standalone="no"?>
<!DOCTYPE svg PUBLIC "-//W3C//DTD SVG 20010904//EN"
 "http://www.w3.org/TR/2001/REC-SVG-20010904/DTD/svg10.dtd">
<svg version="1.0" xmlns="http://www.w3.org/2000/svg"
 width="600.000000pt" height="282.000000pt" viewBox="0 0 600.000000 282.000000"
 preserveAspectRatio="xMidYMid meet">

<g transform="translate(0.000000,282.000000) scale(0.100000,-0.100000)"
fill="#000000" stroke="none">
<path d="M992 2133 c-43 -21 -79 -65 -91 -111 -18 -69 -42 -296 -49 -462 -16
-379 19 -730 105 -1049 34 -126 48 -153 96 -185 31 -20 54 -26 93 -26 46 0 73
10 216 83 271 139 598 343 833 522 197 149 361 291 375 325 18 43 8 130 -18
167 -24 34 -257 195 -432 299 -266 157 -633 324 -915 415 -133 43 -165 46
-213 22z m827 -343 c52 -30 79 -79 101 -183 31 -149 40 -250 40 -444 0 -251
-14 -348 -59 -393 -60 -63 -136 -69 -256 -21 -293 117 -631 304 -688 383 -31
42 -33 124 -5 173 43 73 408 331 642 453 112 59 163 66 225 32z"/>
<path d="M3297 1560 c-13 -19 -13 -28 4 -81 23 -73 25 -242 5 -391 -14 -110
-9 -125 34 -103 31 16 40 33 40 75 0 39 36 119 68 153 19 20 35 27 63 27 48 0
53 -16 34 -104 -18 -83 -11 -121 27 -149 23 -17 29 -18 54 -6 39 19 43 53 10
84 -29 27 -32 56 -15 133 21 87 -10 142 -80 142 -52 0 -97 -33 -139 -100 l-34
-55 6 40 c3 22 8 92 12 155 7 140 -5 193 -48 198 -18 2 -31 -4 -41 -18z"/>
<path d="M5343 1560 c-46 -28 -62 -58 -80 -148 -15 -76 -17 -80 -45 -86 -26
-5 -29 -9 -26 -38 2 -27 8 -34 28 -36 l26 -3 -12 -137 c-7 -75 -15 -167 -19
-203 -7 -82 7 -104 55 -87 17 5 31 15 32 21 0 7 2 100 2 207 l1 195 50 3 c32
2 55 9 63 19 7 10 12 12 12 5 0 -7 11 -17 23 -21 31 -12 54 -61 76 -168 19
-89 40 -120 71 -107 51 21 54 19 29 -25 -27 -47 -101 -121 -122 -121 -8 0 -22
9 -32 20 -33 37 -77 17 -77 -35 0 -53 51 -82 114 -64 90 24 205 201 263 403
38 133 32 186 -20 186 -52 0 -85 -61 -49 -91 12 -10 15 -25 11 -62 -5 -58 -46
-106 -92 -110 -29 -2 -30 -2 -42 76 -14 93 -30 146 -51 170 -19 21 -65 22 -83
1 -11 -14 -13 -14 -21 0 -6 11 -24 16 -60 16 l-51 0 6 42 c3 23 14 53 25 67
18 24 26 26 85 24 57 -1 67 2 72 18 22 70 -86 116 -162 69z"/>
<path d="M2990 1528 c-66 -34 -102 -86 -108 -153 -7 -89 24 -119 175 -164 76
-23 100 -44 88 -82 -24 -75 -141 -88 -229 -26 -33 23 -59 14 -64 -22 -9 -57
61 -104 153 -104 125 0 215 86 215 205 0 73 -37 104 -167 143 -98 29 -128 71
-81 115 27 25 100 27 158 4 58 -23 93 -8 88 39 -2 25 -10 36 -38 49 -50 26
-135 23 -190 -4z"/>
<path d="M3732 1317 c-28 -30 -28 -37 4 -62 33 -27 41 -88 24 -191 -13 -85 -8
-100 32 -85 34 13 40 32 43 123 4 123 22 149 100 145 24 -2 31 3 39 26 14 38
-2 61 -46 65 -29 3 -40 -2 -61 -27 -30 -36 -37 -38 -37 -13 0 45 -62 57 -98
19z"/>
<path d="M4120 1329 c-64 -26 -119 -109 -126 -193 -15 -155 152 -217 269 -101
25 26 37 65 20 65 -5 0 -30 -11 -57 -25 -27 -14 -58 -25 -68 -25 -34 0 -76 29
-86 60 -12 34 -12 34 40 20 98 -28 198 54 180 146 -10 51 -103 80 -172 53z
m85 -99 c0 -32 -44 -54 -90 -46 -46 9 -51 21 -20 51 20 21 33 26 68 23 37 -3
42 -6 42 -28z"/>
<path d="M4357 1322 c-24 -27 -21 -60 7 -73 31 -15 52 -62 73 -165 13 -67 21
-89 39 -101 17 -11 28 -12 43 -4 38 21 41 11 10 -38 -32 -53 -91 -111 -113
-111 -7 0 -21 9 -31 20 -24 27 -51 25 -71 -5 -30 -46 12 -100 77 -99 56 2 111
44 166 127 86 129 169 373 147 435 -13 38 -55 42 -89 7 l-26 -25 20 -34 c26
-42 27 -82 1 -123 -21 -34 -74 -68 -95 -59 -8 2 -18 39 -25 90 -16 113 -44
170 -86 174 -20 2 -36 -3 -47 -16z"/>
<path d="M4919 1326 c-57 -20 -93 -51 -121 -103 -48 -89 -49 -169 -1 -217 46
-46 144 -31 191 29 25 31 32 32 32 1 0 -32 45 -69 74 -60 47 14 62 69 22 83
-30 12 -36 29 -36 102 0 44 4 59 14 59 16 0 26 21 26 56 0 54 -112 82 -201 50z
m74 -80 c21 -5 27 -12 27 -34 -1 -39 -33 -105 -65 -130 -77 -61 -158 25 -111
116 18 35 73 64 106 57 8 -2 27 -6 43 -9z"/>
</g>
</svg>
